HIERARCHY
ROOT root     
{
	OFFSET 0.0000 0.0000 0.0000
	CHANNELS 6 Xposition Yposition Zposition Zrotation Yrotation Xrotation
	JOINT pelvis   
	{
		OFFSET 0.0000 0.0000 0.0000
		CHANNELS 3 Zrotation Yrotation Xrotation
		JOINT thorax   
		{
			OFFSET 0.0000 23.0750 -5.0000
			CHANNELS 3 Zrotation Yrotation Xrotation
			JOINT rclavicle
			{
				OFFSET 0.0000 28.0009 0.0000
				CHANNELS 3 Zrotation Yrotation Xrotation
				JOINT rhumerus 
				{
					OFFSET -18.5725 5.5939 0.0000
					CHANNELS 3 Zrotation Yrotation Xrotation
					JOINT rradius  
					{
						OFFSET -24.8459 0.0000 0.0000
						CHANNELS 3 Zrotation Yrotation Xrotation
						JOINT rhand    
						{
							OFFSET -24.5477 0.0000 0.0000
							CHANNELS 3 Zrotation Yrotation Xrotation
							End Site
							{
								OFFSET -8.1826 0.0000 0.0000
							}
						}
					}
				}
			}
			JOINT lclavicle
			{
				OFFSET 0.0000 28.0009 0.0000
				CHANNELS 3 Zrotation Yrotation Xrotation
				JOINT lhumerus 
				{
					OFFSET 18.5725 5.5939 0.0000
					CHANNELS 3 Zrotation Yrotation Xrotation
					JOINT lradius  
					{
						OFFSET 24.8459 0.0000 0.0000
						CHANNELS 3 Zrotation Yrotation Xrotation
						JOINT lhand    
						{
							OFFSET 24.5477 0.0000 0.0000
							CHANNELS 3 Zrotation Yrotation Xrotation
							End Site
							{
								OFFSET 8.1826 0.0000 0.0000
							}
						}
					}
				}
			}
			JOINT head     
			{
				OFFSET 0.0000 35.2030 0.0000
				CHANNELS 3 Zrotation Yrotation Xrotation
				End Site
				{
					OFFSET 0.0000 11.7343 0.0000
				}
			}
		}
		JOINT rfemur   
		{
			OFFSET -8.2817 0.0000 0.0000
			CHANNELS 3 Zrotation Yrotation Xrotation
			JOINT rtibia   
			{
				OFFSET 0.0000 -43.3627 0.0000
				CHANNELS 3 Zrotation Yrotation Xrotation
				JOINT rfoot    
				{
					OFFSET 0.0000 -38.2947 0.0000
					CHANNELS 3 Zrotation Yrotation Xrotation
					JOINT rtoes    
					{
						OFFSET 0.0000 0.0000 16.6054
						CHANNELS 3 Zrotation Yrotation Xrotation
						End Site
						{
							OFFSET 0.0000 0.0000 5.5351
						}
					}
				}
			}
		}
		JOINT lfemur   
		{
			OFFSET 8.2817 0.0000 0.0000
			CHANNELS 3 Zrotation Yrotation Xrotation
			JOINT ltibia   
			{
				OFFSET 0.0000 -43.3627 0.0000
				CHANNELS 3 Zrotation Yrotation Xrotation
				JOINT lfoot    
				{
					OFFSET 0.0000 -38.2947 0.0000
					CHANNELS 3 Zrotation Yrotation Xrotation
					JOINT ltoes    
					{
						OFFSET 0.0000 0.0000 16.6054
						CHANNELS 3 Zrotation Yrotation Xrotation
						End Site
						{
							OFFSET 0.0000 0.0000 5.5351
						}
					}
				}
			}
		}
	}
}
MOTION
Frames: 7
Frame Time: .0333333
86.485 76.907 3.5372 -66.5805 81.7721 -41.3663 0 -0 0 -10.2731 -0.537607 22.4975 16.9842 -6.71574 2.91839e-05 67.3209 -6.22077 21.6089 -8.56814e-07 65.1797 -5.47739e-07 -5.94112 5.737 -0.297995 -9.60105 7.97073 3.70737e-06 -63.658 -16.8613 1.40878 0 -70.2891 0 5.80564 3.29258 0.166996 -2.29683 2.70607 -1.99404 12.3732 -14.5077 -43.2229 -0 -0 80.6474 1.36623e-05 -13.4782 -2.05831 0.493201 -8.20934e-07 -22.1885 -1.22299 7.23429 -63.5227 -0 -0 62.7579 3.51935e-05 11.9972 -10.5586 -2.23007 -1.85523e-05 -15.7575 
87.098 77.046 3.6262 -68.2285 81.6898 -42.944 0 -0 0 -10.1602 -0.847823 22.5721 16.9648 -6.85282 -1.68125e-05 67.2372 -6.63886 21.8322 -5.47438e-07 65.1686 -8.56521e-07 -6.17395 5.62835 -0.303794 -9.1705 7.85606 8.13482e-06 -63.3579 -17.5619 1.77386 -1.13355e-06 -71.7998 1.5659e-06 5.37772 3.32317 0.156099 -2.23037 3.10635 -1.80147 13.0543 -14.2236 -44.6864 -0 -0 80.2305 -1.454e-06 -13.2065 -3.15402 0.739693 -3.50398e-06 -21.3401 -1.07678 7.43202 -63.1559 -0 -0 62.7911 -3.29717e-05 11.8122 -10.8291 -2.25004 5.73531e-06 -16.0792 
87.706 77.185 3.7173 -69.6279 81.5688 -44.2644 0 -0 0 -10.0415 -1.15239 22.6081 16.953 -6.98367 9.65909e-06 67.1724 -7.03841 21.9326 -0 65.1599 -0 -6.41632 5.50717 -0.308906 -8.7617 7.78486 6.74996e-06 -63.0011 -18.2627 2.12169 1.18981e-06 -73.266 -8.84701e-07 5.02274 3.36017 0.1474 -2.144 3.48973 -1.66359 13.6955 -13.849 -46.1227 -0 -0 79.6686 -1.00624e-05 -12.946 -4.165 0.956518 4.38725e-06 -20.5204 -0.937196 7.67963 -62.7938 -0 -0 62.8158 -5.30658e-06 11.638 -11.1123 -2.27322 -1.55913e-05 -16.467 
88.307 77.326 3.809 -70.7515 81.4237 -45.3102 0 -0 0 -9.92309 -1.44225 22.6154 16.9458 -7.09876 -1.99399e-05 67.1307 -7.43016 21.8945 -0 65.1624 -0 -6.63728 5.39204 -0.312897 -8.35195 7.71462 4.38076e-06 -62.6053 -18.9246 2.41121 -1.3875e-06 -74.6921 1.81825e-06 4.72202 3.38905 0.1398 -2.04096 3.84478 -1.58192 14.2834 -13.3918 -47.5226 -0 -0 78.9648 -2.3812e-05 -12.7204 -5.07939 1.14501 -2.40871e-07 -19.6988 -0.804232 7.9648 -62.4245 -0 -0 62.8286 -1.42564e-06 11.4837 -11.403 -2.30015 1.57311e-06 -16.9502 
88.905 77.468 3.9 -71.6172 81.2605 -46.1013 0 -0 0 -9.7987 -1.7216 22.6012 16.9421 -7.20379 -2.76116e-05 67.0983 -7.8083 21.741 -8.57166e-07 65.1915 -5.48094e-07 -6.82362 5.29307 -0.315798 -7.97061 7.67922 -1.21483e-05 -62.149 -19.59 2.66998 9.87311e-07 -76.0652 -7.72277e-07 4.47635 3.42659 0.134001 -1.9322 4.17117 -1.5589 14.8176 -12.8653 -48.8797 -0 -0 78.1229 2.90109e-05 -12.5504 -5.88254 1.30696 -7.56488e-06 -18.9259 -0.672793 8.27965 -62.0479 -0 -0 62.8305 5.34841e-06 11.3494 -11.7019 -2.33127 -5.74516e-06 -17.4964 
89.501 77.608 3.9894 -72.2377 81.0804 -46.6542 0 -0 0 -9.66967 -1.99092 22.5689 16.9396 -7.29685 -3.99378e-05 67.0682 -8.1754 21.4827 -8.58813e-07 65.2516 -5.49778e-07 -6.96648 5.21237 -0.317504 -7.61387 7.6676 -1.43168e-06 -61.6387 -20.2513 2.88502 -8.63783e-07 -77.3824 1.07853e-06 4.26988 3.4683 0.129299 -1.82224 4.46506 -1.59133 15.2943 -12.2834 -50.1869 -0 -0 77.1469 -4.27274e-06 -12.4483 -6.57245 1.44734 -1.33992e-05 -18.212 -0.540098 8.61274 -61.6572 -0 -0 62.8196 -5.97102e-05 11.2363 -12.0039 -2.36596 4.18099e-06 -18.089 
90.096 77.746 4.0766 -72.6724 80.8821 -47.0262 0 -0 0 -9.53403 -2.25564 22.5243 16.9361 -7.38605 -2.99584e-05 67.0309 -8.51929 21.1538 -5.52383e-07 65.345 -8.61354e-07 -7.06937 5.14739 -0.318206 -7.29326 7.6935 6.9263e-07 -61.0659 -20.9244 3.06211 1.67563e-06 -78.6322 -1.37228e-06 4.09244 3.51466 0.125601 -1.7164 4.72656 -1.67466 15.7135 -11.6574 -51.4398 -0 -0 76.0392 -1.827e-05 -12.422 -7.15377 1.57135 7.38634e-06 -17.5791 -0.402341 8.95425 -61.2496 -0 -0 62.7959 2.47678e-05 11.1412 -12.3038 -2.40309 -3.54432e-06 -18.6999 
